<?xml version="1.0" encoding="UTF-8" standalone="no"?>
<svg
   viewBox="0 0 24 24"
   width="24px"
   height="24px"
   version="1.1"
   id="svg1"
   sodipodi:docname="facebook.svg"
   inkscape:version="1.3.2 (091e20e, 2023-11-25, custom)"
   xmlns:inkscape="http://www.inkscape.org/namespaces/inkscape"
   xmlns:sodipodi="http://sodipodi.sourceforge.net/DTD/sodipodi-0.dtd"
   xmlns="http://www.w3.org/2000/svg"
   xmlns:svg="http://www.w3.org/2000/svg">
  <defs
     id="defs1" />
  <sodipodi:namedview
     id="namedview1"
     pagecolor="#ffffff"
     bordercolor="#000000"
     borderopacity="0.25"
     inkscape:showpageshadow="2"
     inkscape:pageopacity="0.0"
     inkscape:pagecheckerboard="0"
     inkscape:deskcolor="#d1d1d1"
     inkscape:zoom="35.625"
     inkscape:cx="12"
     inkscape:cy="12"
     inkscape:window-width="1920"
     inkscape:window-height="1111"
     inkscape:window-x="-9"
     inkscape:window-y="-9"
     inkscape:window-maximized="1"
     inkscape:current-layer="svg1" />
  <path
     d="M 12 2 C 6.4889971 2 2 6.4889971 2 12 C 2 17.511003 6.4889971 22 12 22 C 17.511003 22 22 17.511003 22 12 C 22 6.4889971 17.511003 2 12 2 z M 12 4 C 16.430123 4 20 7.5698774 20 12 C 20 16.014467 17.065322 19.313017 13.21875 19.898438 L 13.21875 14.384766 L 15.546875 14.384766 L 15.912109 12.019531 L 13.21875 12.019531 L 13.21875 10.726562 C 13.21875 9.7435625 13.538984 8.8710938 14.458984 8.8710938 L 15.935547 8.8710938 L 15.935547 6.8066406 C 15.675547 6.7716406 15.126844 6.6953125 14.089844 6.6953125 C 11.923844 6.6953125 10.654297 7.8393125 10.654297 10.445312 L 10.654297 12.019531 L 8.4277344 12.019531 L 8.4277344 14.384766 L 10.654297 14.384766 L 10.654297 19.878906 C 6.8702905 19.240845 4 15.970237 4 12 C 4 7.5698774 7.5698774 4 12 4 z"
     id="path1"
     style="fill:#ffffff" />
</svg>
