<?xml version="1.0" encoding="UTF-8" standalone="no"?>
<svg
   viewBox="0 0 24 24"
   width="24px"
   height="24px"
   version="1.1"
   id="svg1"
   sodipodi:docname="medium.svg"
   inkscape:version="1.3.2 (091e20e, 2023-11-25, custom)"
   xmlns:inkscape="http://www.inkscape.org/namespaces/inkscape"
   xmlns:sodipodi="http://sodipodi.sourceforge.net/DTD/sodipodi-0.dtd"
   xmlns="http://www.w3.org/2000/svg"
   xmlns:svg="http://www.w3.org/2000/svg">
  <defs
     id="defs1" />
  <sodipodi:namedview
     id="namedview1"
     pagecolor="#ffffff"
     bordercolor="#000000"
     borderopacity="0.25"
     inkscape:showpageshadow="2"
     inkscape:pageopacity="0.0"
     inkscape:pagecheckerboard="0"
     inkscape:deskcolor="#d1d1d1"
     inkscape:zoom="35.625"
     inkscape:cx="12"
     inkscape:cy="12"
     inkscape:window-width="1920"
     inkscape:window-height="1111"
     inkscape:window-x="-9"
     inkscape:window-y="-9"
     inkscape:window-maximized="1"
     inkscape:current-layer="svg1" />
  <path
     d="M7 8c2.757 0 5 2.243 5 5s-2.243 5-5 5-5-2.243-5-5S4.243 8 7 8M7 6c-3.866 0-7 3.134-7 7s3.134 7 7 7 7-3.134 7-7S10.866 6 7 6L7 6zM18 8.693c.409.582 1 2.081 1 4.307s-.591 3.725-1 4.307c-.409-.582-1-2.081-1-4.307S17.591 9.275 18 8.693M18 6.5c-1.657 0-3 2.91-3 6.5s1.343 6.5 3 6.5 3-2.91 3-6.5S19.657 6.5 18 6.5L18 6.5zM23 8A1 5 0 1023 18 1 5 0 1023 8z"
     id="path1"
     style="fill:#ffffff" />
</svg>
