<?xml version="1.0" encoding="UTF-8" standalone="no"?>
<svg
   viewBox="0 0 24 24"
   width="24"
   height="24"
   version="1.1"
   id="svg1"
   sodipodi:docname="pinterest.svg"
   inkscape:export-filename="pinterest-white.png"
   inkscape:export-xdpi="96"
   inkscape:export-ydpi="96"
   xmlns:inkscape="http://www.inkscape.org/namespaces/inkscape"
   xmlns:sodipodi="http://sodipodi.sourceforge.net/DTD/sodipodi-0.dtd"
   xmlns="http://www.w3.org/2000/svg"
   xmlns:svg="http://www.w3.org/2000/svg">
  <defs
     id="defs1" />
  <sodipodi:namedview
     id="namedview1"
     pagecolor="#ffffff"
     bordercolor="#000000"
     borderopacity="0.25"
     inkscape:showpageshadow="2"
     inkscape:pageopacity="0.0"
     inkscape:pagecheckerboard="0"
     inkscape:deskcolor="#d1d1d1" />
  <path
     d="M 12,2 C 6.477,2 2,6.477 2,12 2,17.523 6.477,22 12,22 17.523,22 22,17.523 22,12 22,6.477 17.523,2 12,2 Z m 0,2 c 4.418,0 8,3.582 8,8 0,4.418 -3.582,8 -8,8 -0.735618,0 -1.444506,-0.107031 -2.1210938,-0.292969 0.2128138,-0.428747 0.4037158,-0.880577 0.5078128,-1.28125 0.115,-0.44 0.585937,-2.234375 0.585937,-2.234375 0.306,0.584 1.200344,1.080078 2.152344,1.080078 2.833,0 4.875,-2.60575 4.875,-5.84375 C 18,8.3227344 15.467031,6 12.207031,6 8.1520313,6 6,8.7215469 6,11.685547 c 0,1.378 0.73325,3.093625 1.90625,3.640625 0.178,0.083 0.2734531,0.047 0.3144531,-0.125 0.032,-0.131 0.1907188,-0.769406 0.2617188,-1.066406 0.023,-0.094 0.012547,-0.176532 -0.064453,-0.269532 -0.388,-0.471 -0.6992188,-1.335578 -0.6992188,-2.142578 0,-2.0729998 1.5691875,-4.0781248 4.2421879,-4.0781248 2.307999,10e-8 3.923828,1.5732657 3.923828,3.8222658 0,2.541 -1.283125,4.300781 -2.953125,4.300781 -0.922,0 -1.614578,-0.761266 -1.392579,-1.697266 0.265001,-1.116999 0.779297,-2.322906 0.779297,-3.128906 0,-0.721 -0.3855,-1.3222654 -1.1875,-1.3222654 -0.943,0 -1.7011714,0.9742504 -1.7011714,2.2812504 0,0.832 0.28125,1.394531 0.28125,1.394531 0,0 -0.9305625,3.936922 -1.1015625,4.669922 -0.084749,0.361743 -0.1130369,0.7903 -0.1152344,1.21875 C 5.8357722,17.883113 4,15.15864 4,12 4,7.582 7.582,4 12,4 Z"
     id="path1" />
  <path
     style="fill:#ffffff;fill-opacity:1;stroke-width:0.0280702"
     d="M 11.494737,21.976225 C 9.4840157,21.838621 7.7809968,21.241365 6.1892126,20.115556 5.3086978,19.492801 4.3683263,18.528511 3.7497393,17.614035 2.7979224,16.206934 2.2509213,14.704299 2.0586066,12.968421 2.0139796,12.565608 2.0149022,11.428445 2.0601893,11.017544 2.2575007,9.2272907 2.8559069,7.6434639 3.8844439,6.1892126 4.3361503,5.5505437 5.1220856,4.7208126 5.754386,4.2150688 7.0530198,3.1763601 8.603655,2.4678422 10.217544,2.1757584 c 2.658066,-0.4810605 5.355337,0.1258984 7.593243,1.7086855 0.880633,0.622838 1.821449,1.5876215 2.439379,2.501521 0.953734,1.4105423 1.49865,2.907367 1.691227,4.6456141 0.04463,0.402813 0.0437,1.539976 -0.0016,1.950877 -0.346823,3.146808 -2.022288,5.830199 -4.683896,7.501635 -1.221065,0.766803 -2.658363,1.265405 -4.146244,1.438342 -0.361911,0.04206 -1.319981,0.07398 -1.614934,0.05379 z m 1.74783,-2.056856 c 1.349747,-0.220952 2.499554,-0.711599 3.613573,-1.54199 0.427561,-0.318703 1.203259,-1.094761 1.524338,-1.525043 0.83417,-1.117883 1.334249,-2.3025 1.550699,-3.673389 0.07105,-0.45001 0.08712,-1.592565 0.02942,-2.091228 C 19.793258,9.6417168 19.272321,8.3393476 18.388699,7.1578947 18.0547,6.7113199 17.28868,5.9453002 16.842105,5.6113013 15.668765,4.7337461 14.362751,4.209033 12.936631,4.0422107 c -0.469491,-0.054919 -1.403771,-0.054919 -1.873262,0 C 9.6372486,4.209033 8.3312351,4.7337461 7.1578947,5.6113013 6.7113199,5.9453002 5.9453002,6.7113199 5.6113013,7.1578947 4.7337461,8.3312351 4.209033,9.6372486 4.0422107,11.063369 c -0.054499,0.465899 -0.054904,1.403899 -8.06e-4,1.866371 0.1482696,1.267519 0.5798733,2.438481 1.2920331,3.505348 0.7284811,1.091318 1.6457925,1.934185 2.8090327,2.581065 0.1679483,0.0934 0.3195854,0.169812 0.3369712,0.169812 0.02119,0 0.037008,-0.131871 0.047981,-0.4 0.009,-0.22 0.03062,-0.47579 0.048037,-0.568421 0.017417,-0.09263 0.2836337,-1.238101 0.5915936,-2.545486 L 9.7269805,13.294993 9.6687326,13.147217 C 9.4736924,12.652396 9.3985768,11.937333 9.4861693,11.409303 9.6285735,10.550852 10.079557,9.9273171 10.71884,9.7049962 c 0.170084,-0.05915 0.236298,-0.067393 0.466022,-0.05802 0.22768,0.00929 0.295753,0.024051 0.454678,0.098598 0.235749,0.1105816 0.399141,0.2769938 0.518527,0.5281098 0.246656,0.518818 0.190209,1.029063 -0.284138,2.568421 -0.306031,0.993138 -0.379001,1.297224 -0.379103,1.579833 -2.22e-4,0.614498 0.366099,1.103374 0.967166,1.290737 0.157663,0.04915 0.260135,0.0609 0.506429,0.05809 1.447745,-0.01653 2.564335,-1.316407 2.865326,-3.335676 0.06893,-0.462434 0.07104,-1.357663 0.004,-1.718556 C 15.584176,9.3502479 14.725665,8.3268048 13.458058,7.8796168 12.384256,7.5007994 11.050337,7.5652463 10.008728,8.0462675 9.2183579,8.4112646 8.4701277,9.1592693 8.101975,9.9524458 7.6821763,10.856893 7.5974389,11.852725 7.8618858,12.773967 c 0.087971,0.30646 0.30608,0.772715 0.4699463,1.004611 0.066964,0.09477 0.1297612,0.194234 0.1395484,0.221044 0.021165,0.05797 -0.2498914,1.186477 -0.3068606,1.277571 -0.053378,0.08535 -0.1459231,0.08044 -0.3411445,-0.01811 -0.7850192,-0.396276 -1.4711,-1.482975 -1.7238321,-2.730416 -0.091158,-0.449938 -0.092024,-1.33597 -0.00179,-1.833931 C 6.3146964,9.4974625 6.8194981,8.5232345 7.6467624,7.7052632 8.5245813,6.8373053 9.6452632,6.309513 11.073684,6.0913331 c 0.407663,-0.062268 1.366398,-0.086672 1.769373,-0.04504 1.809854,0.1869804 3.339319,1.070316 4.274588,2.4687685 0.568752,0.8504225 0.862103,1.8543744 0.860816,2.9460254 -0.0031,2.638154 -1.404992,4.883443 -3.480215,5.573997 -0.461799,0.153669 -0.758044,0.197463 -1.333334,0.197109 -0.49828,-3.07e-4 -0.549937,-0.0053 -0.785965,-0.0763 -0.544093,-0.16362 -1.055548,-0.487701 -1.291085,-0.81809 -0.0935,-0.13116 -0.115742,-0.148972 -0.133833,-0.107199 -0.01193,0.02755 -0.159766,0.576278 -0.32852,1.219388 -0.311647,1.187667 -0.416044,1.513595 -0.6361563,1.98608 -0.06768,0.145279 -0.1171178,0.27008 -0.1098622,0.277336 0.022941,0.02294 0.5396245,0.141282 0.8232715,0.188562 0.506473,0.08442 0.663738,0.0938 1.423554,0.08492 0.603858,-0.0071 0.830728,-0.02078 1.116251,-0.06752 z"
     id="path2" />
</svg>
