<?xml version="1.0" encoding="UTF-8" standalone="no"?>
<svg
   viewBox="0 0 24 24"
   width="24"
   height="24"
   version="1.1"
   id="svg1"
   sodipodi:docname="reddit.svg"
   xmlns:inkscape="http://www.inkscape.org/namespaces/inkscape"
   xmlns:sodipodi="http://sodipodi.sourceforge.net/DTD/sodipodi-0.dtd"
   xmlns="http://www.w3.org/2000/svg"
   xmlns:svg="http://www.w3.org/2000/svg">
  <defs
     id="defs1" />
  <sodipodi:namedview
     id="namedview1"
     pagecolor="#ffffff"
     bordercolor="#000000"
     borderopacity="0.25"
     inkscape:showpageshadow="2"
     inkscape:pageopacity="0.0"
     inkscape:pagecheckerboard="0"
     inkscape:deskcolor="#d1d1d1" />
  <path
     d="M 14,3 C 12.300781,3 11,4.414063 11,6 V 8.03125 C 8.882813,8.175781 6.976563,8.785156 5.4375,9.71875 4.878906,9.28125 4.21875,9.03125 3.5625,9.03125 2.835938,9.03125 2.128906,9.308594 1.625,9.875 0.667969,11.070313 0.753906,13.023438 2.09375,14.03125 2.03125,14.347656 2,14.667969 2,15 2,17.054688 3.242188,18.84375 5.0625,20.0625 6.882813,21.28125 9.320313,22 12,22 14.679688,22 17.117188,21.28125 18.9375,20.0625 20.757813,18.84375 22,17.054688 22,15 c 0,-0.332031 -0.0625,-0.652344 -0.125,-0.96875 1.363281,-1.085937 1.503906,-3.027344 0.5,-4.15625 -0.503906,-0.566406 -1.210937,-0.84375 -1.9375,-0.84375 -0.65625,0 -1.316406,0.25 -1.875,0.6875 C 17.023438,8.785156 15.117188,8.175781 13,8.03125 V 6 c 0,-0.613281 0.300781,-1 1,-1 0.320313,0 0.773438,0.171875 1.53125,0.4375 0.671875,0.234375 1.5625,0.476563 2.71875,0.53125 C 18.589844,6.585938 19.25,7 20,7 21.101563,7 22,6.101563 22,5 22,3.898438 21.101563,3 20,3 19.273438,3 18.632813,3.382813 18.28125,3.96875 17.394531,3.925781 16.769531,3.765625 16.1875,3.5625 15.519531,3.328125 14.878906,3 14,3 Z m 6,1 c 0.601563,0 1,0.398438 1,1 0,0.601563 -0.398437,1 -1,1 -0.601562,0 -1,-0.398437 -1,-1 0,-0.601562 0.398438,-1 1,-1 z m -8,6 c 2.320313,0 4.382813,0.636719 5.8125,1.59375 C 19.242188,12.550781 20,13.753906 20,15 20,16.246094 19.242188,17.449219 17.8125,18.40625 16.382813,19.363281 14.320313,20 12,20 9.679688,20 7.617188,19.363281 6.1875,18.40625 4.757813,17.449219 4,16.246094 4,15 4,13.753906 4.757813,12.550781 6.1875,11.59375 7.617188,10.636719 9.679688,10 12,10 Z m -8.40625,0.03125 c 0.332031,0 0.683594,0.07031 1,0.25 -0.964844,0.742188 -1.714844,1.65625 -2.15625,2.6875 -0.582031,-0.6875 -0.570312,-1.777344 -0.0625,-2.4375 0.296875,-0.335937 0.746094,-0.5 1.21875,-0.5 z m 16.8125,0 c 0.472656,0 0.921875,0.164063 1.21875,0.5 0.492188,0.554688 0.53125,1.644531 -0.0625,2.40625 -0.441406,-1.023437 -1.199219,-1.917969 -2.15625,-2.65625 0.316406,-0.179687 0.667969,-0.25 1,-0.25 z M 9,12 C 8.171875,12 7.5,12.671875 7.5,13.5 7.5,14.328125 8.171875,15 9,15 9.828125,15 10.5,14.328125 10.5,13.5 10.5,12.671875 9.828125,12 9,12 Z m 6,0 c -0.828125,0 -1.5,0.671875 -1.5,1.5 0,0.828125 0.671875,1.5 1.5,1.5 0.828125,0 1.5,-0.671875 1.5,-1.5 C 16.5,12.671875 15.828125,12 15,12 Z m 1.09375,4.40625 C 15.195313,17.207031 13.699219,17.6875 12,17.6875 10.300781,17.6875 8.804688,17.199219 7.90625,16.5 8.40625,17.800781 10,19 12,19 c 2,0 3.59375,-1.195312 4.09375,-2.59375 z"
     id="path1"
     style="fill:#ffffff" />
</svg>
