<?xml version="1.0" encoding="UTF-8" standalone="no"?>
<svg
   viewBox="0 0 24 24"
   width="24"
   height="24"
   version="1.1"
   id="svg1"
   sodipodi:docname="snapchat.svg"
   xmlns:inkscape="http://www.inkscape.org/namespaces/inkscape"
   xmlns:sodipodi="http://sodipodi.sourceforge.net/DTD/sodipodi-0.dtd"
   xmlns="http://www.w3.org/2000/svg"
   xmlns:svg="http://www.w3.org/2000/svg">
  <defs
     id="defs1" />
  <sodipodi:namedview
     id="namedview1"
     pagecolor="#ffffff"
     bordercolor="#000000"
     borderopacity="0.25"
     inkscape:showpageshadow="2"
     inkscape:pageopacity="0.0"
     inkscape:pagecheckerboard="0"
     inkscape:deskcolor="#d1d1d1" />
  <path
     d="M 12,2 C 6,2 6,8 6,8 V 9 C 6,9 5.977,8.999 5.937,8.999 5.597,8.999 4,9.069 4,10.395 4,11.94 5.697,12 5.965,12 5.988,12 6,12 6,12 6,13 4.348,14.171 3.264,14.442 2.254,14.834 2.013,15.503 2,16.01 1.992,16.313 2.066,16.558 2.106,16.653 2.483,17.538 3.603,17.995 4.7,17.995 4.738,19.434 5.776,20 6.471,20 7.265,20 8.105,19.612 8.105,19.612 8.146,19.646 9.425,21 12,21 c 2.575,0 3.854,-1.354 3.896,-1.388 0,0 0.839,0.388 1.634,0.388 0.695,0 1.732,-0.566 1.77,-2.005 1.097,0 2.217,-0.457 2.594,-1.342 C 21.934,16.558 22.008,16.313 22,16.01 21.987,15.503 21.746,14.834 20.736,14.442 19.652,14.171 18,13 18,12 c 0,0 0.012,0 0.035,0 C 18.303,12 20,11.94 20,10.395 20,9.069 18.403,8.999 18.063,8.999 18.023,8.999 18,9 18,9 V 8 c 0,0 0,-6 -6,-6 z"
     id="path1"
     style="fill:#ffffff" />
</svg>
