<?xml version="1.0" encoding="UTF-8" standalone="no"?>
<svg
   viewBox="0 0 24 24"
   width="24px"
   height="24px"
   version="1.1"
   id="svg1"
   sodipodi:docname="telegram-app.svg"
   inkscape:version="1.3.2 (091e20e, 2023-11-25, custom)"
   xmlns:inkscape="http://www.inkscape.org/namespaces/inkscape"
   xmlns:sodipodi="http://sodipodi.sourceforge.net/DTD/sodipodi-0.dtd"
   xmlns="http://www.w3.org/2000/svg"
   xmlns:svg="http://www.w3.org/2000/svg">
  <defs
     id="defs1" />
  <sodipodi:namedview
     id="namedview1"
     pagecolor="#ffffff"
     bordercolor="#000000"
     borderopacity="0.25"
     inkscape:showpageshadow="2"
     inkscape:pageopacity="0.0"
     inkscape:pagecheckerboard="0"
     inkscape:deskcolor="#d1d1d1"
     inkscape:zoom="35.625"
     inkscape:cx="12"
     inkscape:cy="12"
     inkscape:window-width="1920"
     inkscape:window-height="1111"
     inkscape:window-x="-9"
     inkscape:window-y="-9"
     inkscape:window-maximized="1"
     inkscape:current-layer="svg1" />
  <path
     d="M 20.572266 3.0117188 C 20.239891 2.9764687 19.878625 3.028375 19.515625 3.171875 C 19.065625 3.348875 12.014406 6.3150313 5.4414062 9.0820312 L 3.2695312 9.9960938 C 2.4285313 10.337094 2.0039062 10.891672 2.0039062 11.638672 C 2.0039062 12.161672 2.22525 12.871063 3.28125 13.289062 L 6.9472656 14.757812 C 7.2642656 15.708813 8.0005469 17.916906 8.1855469 18.503906 C 8.2955469 18.851906 8.5733906 19.728594 9.2753906 19.933594 C 9.4193906 19.982594 9.5696563 20.007813 9.7226562 20.007812 C 10.165656 20.007812 10.484625 19.801641 10.640625 19.681641 L 12.970703 17.710938 L 15.800781 20.328125 C 15.909781 20.439125 16.486719 21 17.261719 21 C 18.228719 21 18.962234 20.195016 19.115234 19.416016 C 19.198234 18.989016 21.927734 5.2870625 21.927734 5.2890625 C 22.172734 4.1900625 21.732219 3.6199531 21.449219 3.3769531 C 21.206719 3.1694531 20.904641 3.0469688 20.572266 3.0117188 z M 19.910156 5.171875 C 19.533156 7.061875 17.478016 17.378234 17.166016 18.865234 L 13.029297 15.039062 L 10.222656 17.416016 L 11 14.375 C 11 14.375 16.362547 8.9468594 16.685547 8.6308594 C 16.945547 8.3778594 17 8.2891719 17 8.2011719 C 17 8.0841719 16.939781 8 16.800781 8 C 16.675781 8 16.506016 8.1197812 16.416016 8.1757812 C 15.272669 8.8885973 10.404094 11.662239 8.0078125 13.025391 L 4.53125 11.636719 L 6.21875 10.927734 C 10.51775 9.1177344 18.174156 5.893875 19.910156 5.171875 z"
     id="path1"
     style="fill:#ffffff" />
</svg>
