<?xml version="1.0" encoding="UTF-8" standalone="no"?>
<svg
   viewBox="0 0 24 24"
   width="24px"
   height="24px"
   version="1.1"
   id="svg1"
   sodipodi:docname="tiktok.svg"
   inkscape:version="1.3.2 (091e20e, 2023-11-25, custom)"
   xmlns:inkscape="http://www.inkscape.org/namespaces/inkscape"
   xmlns:sodipodi="http://sodipodi.sourceforge.net/DTD/sodipodi-0.dtd"
   xmlns="http://www.w3.org/2000/svg"
   xmlns:svg="http://www.w3.org/2000/svg">
  <defs
     id="defs1" />
  <sodipodi:namedview
     id="namedview1"
     pagecolor="#ffffff"
     bordercolor="#000000"
     borderopacity="0.25"
     inkscape:showpageshadow="2"
     inkscape:pageopacity="0.0"
     inkscape:pagecheckerboard="0"
     inkscape:deskcolor="#d1d1d1"
     inkscape:zoom="35.625"
     inkscape:cx="12"
     inkscape:cy="12"
     inkscape:window-width="1920"
     inkscape:window-height="1111"
     inkscape:window-x="-9"
     inkscape:window-y="-9"
     inkscape:window-maximized="1"
     inkscape:current-layer="svg1" />
  <path
     d="M 6 3 C 4.3550302 3 3 4.3550302 3 6 L 3 18 C 3 19.64497 4.3550302 21 6 21 L 18 21 C 19.64497 21 21 19.64497 21 18 L 21 6 C 21 4.3550302 19.64497 3 18 3 L 6 3 z M 6 5 L 18 5 C 18.56503 5 19 5.4349698 19 6 L 19 18 C 19 18.56503 18.56503 19 18 19 L 6 19 C 5.4349698 19 5 18.56503 5 18 L 5 6 C 5 5.4349698 5.4349698 5 6 5 z M 12 7 L 12 14 C 12 14.56503 11.56503 15 11 15 C 10.43497 15 10 14.56503 10 14 C 10 13.43497 10.43497 13 11 13 L 11 11 C 9.3550302 11 8 12.35503 8 14 C 8 15.64497 9.3550302 17 11 17 C 12.64497 17 14 15.64497 14 14 L 14 10.232422 C 14.616148 10.671342 15.259118 11 16 11 L 16 9 C 15.952667 9 15.262674 8.7809373 14.78125 8.3613281 C 14.299826 7.941719 14 7.4149911 14 7 L 12 7 z"
     id="path1"
     style="fill:#ffffff" />
</svg>
