<?xml version="1.0" encoding="UTF-8" standalone="no"?>
<svg
   viewBox="0 0 24 24"
   width="24px"
   height="24px"
   version="1.1"
   id="svg1"
   sodipodi:docname="tinder.svg"
   inkscape:version="1.3.2 (091e20e, 2023-11-25, custom)"
   xmlns:inkscape="http://www.inkscape.org/namespaces/inkscape"
   xmlns:sodipodi="http://sodipodi.sourceforge.net/DTD/sodipodi-0.dtd"
   xmlns="http://www.w3.org/2000/svg"
   xmlns:svg="http://www.w3.org/2000/svg">
  <defs
     id="defs1" />
  <sodipodi:namedview
     id="namedview1"
     pagecolor="#ffffff"
     bordercolor="#000000"
     borderopacity="0.25"
     inkscape:showpageshadow="2"
     inkscape:pageopacity="0.0"
     inkscape:pagecheckerboard="0"
     inkscape:deskcolor="#d1d1d1"
     inkscape:zoom="35.625"
     inkscape:cx="12"
     inkscape:cy="12"
     inkscape:window-width="1920"
     inkscape:window-height="1111"
     inkscape:window-x="-9"
     inkscape:window-y="-9"
     inkscape:window-maximized="1"
     inkscape:current-layer="svg1" />
  <path
     d="M14.636,4.584C16.712,6.27,19,9.066,19,13.193C19,16.539,16.382,20,12,20c-5.167,0-7-3.702-7-6.871 c0-1.252,0.489-2.468,1.184-3.457c0.152,0.318,0.33,0.626,0.539,0.911l0.09,0.123l0.108,0.108l0.064,0.064l0.86,0.86l1.159-0.368 C12.243,10.343,14.191,7.945,14.636,4.584 M12.66,0.965c-0.081,0-0.081,0.142-0.081,0.142C13.093,4.45,12.45,8.179,8.4,9.464 L8.336,9.4C7.629,8.436,7.371,6.829,7.371,6.186c0-0.129-0.193-0.129-0.193-0.129C4.929,7.343,3,10.236,3,13.129 C3,17.95,6.214,22,12,22c5.336,0,9-4.179,9-8.807c0-6.236-4.371-10.286-8.293-12.214C12.689,0.969,12.673,0.965,12.66,0.965 L12.66,0.965z"
     id="path1"
     style="fill:#ffffff" />
</svg>
