<?xml version="1.0" encoding="UTF-8" standalone="no"?>
<svg
   viewBox="0 0 24 24"
   width="24px"
   height="24px"
   version="1.1"
   id="svg1"
   sodipodi:docname="tumblr.svg"
   inkscape:version="1.3.2 (091e20e, 2023-11-25, custom)"
   xmlns:inkscape="http://www.inkscape.org/namespaces/inkscape"
   xmlns:sodipodi="http://sodipodi.sourceforge.net/DTD/sodipodi-0.dtd"
   xmlns="http://www.w3.org/2000/svg"
   xmlns:svg="http://www.w3.org/2000/svg">
  <defs
     id="defs1" />
  <sodipodi:namedview
     id="namedview1"
     pagecolor="#ffffff"
     bordercolor="#000000"
     borderopacity="0.25"
     inkscape:showpageshadow="2"
     inkscape:pageopacity="0.0"
     inkscape:pagecheckerboard="0"
     inkscape:deskcolor="#d1d1d1"
     inkscape:zoom="35.625"
     inkscape:cx="12"
     inkscape:cy="12"
     inkscape:window-width="1920"
     inkscape:window-height="1111"
     inkscape:window-x="-9"
     inkscape:window-y="-9"
     inkscape:window-maximized="1"
     inkscape:current-layer="svg1" />
  <path
     d="M 20 2 L 4 2 C 2.898438 2 2 2.898438 2 4 L 2 20 C 2 21.101563 2.898438 22 4 22 L 20 22 C 21.101563 22 22 21.101563 22 20 L 22 4 C 22 2.898438 21.101563 2 20 2 Z M 17 17.875 C 17 17.921875 16.980469 17.972656 16.941406 18 C 16.894531 18.046875 15.515625 19 13 19 C 9.980469 19 10 15.386719 10 15 L 10 11 L 8.175781 11 C 8.078125 11 8 10.921875 8 10.824219 L 8 9.164063 C 8 9.085938 8.039063 9.027344 8.105469 9 C 8.136719 8.988281 11 7.730469 11 5.175781 C 11 5.078125 11.078125 5 11.175781 5 L 12.828125 5 C 12.921875 5 13 5.078125 13 5.175781 L 13 9 L 15.824219 9 C 15.914063 9 16 9.078125 16 9.175781 L 16 10.828125 C 16 10.921875 15.914063 11 15.824219 11 L 13 11 L 13 15 C 13 15.058594 12.90625 16.273438 14.199219 16.273438 C 15.261719 16.273438 16.71875 15.925781 16.730469 15.925781 C 16.789063 15.886719 16.855469 15.886719 16.902344 15.917969 C 16.960938 15.945313 17 16.003906 17 16.070313 Z"
     id="path1"
     style="fill:#ffffff" />
</svg>
