<?xml version="1.0" encoding="UTF-8" standalone="no"?>
<svg
   viewBox="0 0 24 24"
   width="24px"
   height="24px"
   version="1.1"
   id="svg1"
   sodipodi:docname="twitch.svg"
   inkscape:version="1.3.2 (091e20e, 2023-11-25, custom)"
   xmlns:inkscape="http://www.inkscape.org/namespaces/inkscape"
   xmlns:sodipodi="http://sodipodi.sourceforge.net/DTD/sodipodi-0.dtd"
   xmlns="http://www.w3.org/2000/svg"
   xmlns:svg="http://www.w3.org/2000/svg">
  <defs
     id="defs1" />
  <sodipodi:namedview
     id="namedview1"
     pagecolor="#ffffff"
     bordercolor="#000000"
     borderopacity="0.25"
     inkscape:showpageshadow="2"
     inkscape:pageopacity="0.0"
     inkscape:pagecheckerboard="0"
     inkscape:deskcolor="#d1d1d1"
     inkscape:zoom="35.625"
     inkscape:cx="12"
     inkscape:cy="12"
     inkscape:window-width="1920"
     inkscape:window-height="1111"
     inkscape:window-x="-9"
     inkscape:window-y="-9"
     inkscape:window-maximized="1"
     inkscape:current-layer="svg1" />
  <path
     d="M 5.8730469 2 C 5.5530469 2 5.2524531 2.1521094 5.0644531 2.4121094 L 2.1914062 6.375 C 2.0674063 6.546 2 6.7518906 2 6.9628906 L 2 19 C 2 19.552 2.448 20 3 20 L 7 20 L 7 22 C 7 22.552 7.448 23 8 23 L 9.5859375 23 C 9.8509375 23 10.104969 22.895031 10.292969 22.707031 L 12.707031 20.292969 C 12.894031 20.104969 13.149062 20 13.414062 20 L 16.585938 20 C 16.850938 20 17.104969 19.895031 17.292969 19.707031 L 21.707031 15.292969 C 21.895031 15.105969 22 14.850938 22 14.585938 L 22 3 C 22 2.448 21.552 2 21 2 L 5.8730469 2 z M 6 4 L 20 4 L 20 13 L 17 16 L 12 16 L 9 19 L 9 16 L 6 16 L 6 4 z M 12 7 C 11.448 7 11 7.448 11 8 L 11 11 C 11 11.552 11.448 12 12 12 C 12.552 12 13 11.552 13 11 L 13 8 C 13 7.448 12.552 7 12 7 z M 17 7 C 16.448 7 16 7.448 16 8 L 16 11 C 16 11.552 16.448 12 17 12 C 17.552 12 18 11.552 18 11 L 18 8 C 18 7.448 17.552 7 17 7 z"
     id="path1"
     style="fill:#ffffff" />
</svg>
