<?xml version="1.0" encoding="UTF-8" standalone="no"?>
<svg
   viewBox="0 0 24 24"
   width="24px"
   height="24px"
   version="1.1"
   id="svg1"
   sodipodi:docname="twitter.svg"
   inkscape:version="1.3.2 (091e20e, 2023-11-25, custom)"
   xmlns:inkscape="http://www.inkscape.org/namespaces/inkscape"
   xmlns:sodipodi="http://sodipodi.sourceforge.net/DTD/sodipodi-0.dtd"
   xmlns="http://www.w3.org/2000/svg"
   xmlns:svg="http://www.w3.org/2000/svg">
  <defs
     id="defs1" />
  <sodipodi:namedview
     id="namedview1"
     pagecolor="#ffffff"
     bordercolor="#000000"
     borderopacity="0.25"
     inkscape:showpageshadow="2"
     inkscape:pageopacity="0.0"
     inkscape:pagecheckerboard="0"
     inkscape:deskcolor="#d1d1d1"
     inkscape:zoom="35.625"
     inkscape:cx="12"
     inkscape:cy="12"
     inkscape:window-width="1920"
     inkscape:window-height="1111"
     inkscape:window-x="-9"
     inkscape:window-y="-9"
     inkscape:window-maximized="1"
     inkscape:current-layer="svg1" />
  <path
     d="M22,3.999c-0.78,0.463-2.345,1.094-3.265,1.276c-0.027,0.007-0.049,0.016-0.075,0.023c-0.813-0.802-1.927-1.299-3.16-1.299 c-2.485,0-4.5,2.015-4.5,4.5c0,0.131-0.011,0.372,0,0.5c-3.353,0-5.905-1.756-7.735-4c-0.199,0.5-0.286,1.29-0.286,2.032 c0,1.401,1.095,2.777,2.8,3.63c-0.314,0.081-0.66,0.139-1.02,0.139c-0.581,0-1.196-0.153-1.759-0.617c0,0.017,0,0.033,0,0.051 c0,1.958,2.078,3.291,3.926,3.662c-0.375,0.221-1.131,0.243-1.5,0.243c-0.26,0-1.18-0.119-1.426-0.165 c0.514,1.605,2.368,2.507,4.135,2.539c-1.382,1.084-2.341,1.486-5.171,1.486H2C3.788,19.145,6.065,20,8.347,20 C15.777,20,20,14.337,20,8.999c0-0.086-0.002-0.266-0.005-0.447C19.995,8.534,20,8.517,20,8.499c0-0.027-0.008-0.053-0.008-0.08 c-0.003-0.136-0.006-0.263-0.009-0.329c0.79-0.57,1.475-1.281,2.017-2.091c-0.725,0.322-1.503,0.538-2.32,0.636 C20.514,6.135,21.699,4.943,22,3.999z M18,8.999c0,4.08-2.957,8.399-8.466,8.943C10.28,17.413,11,16.662,11,16.662 S8,14,7.775,10.522C8.81,10.838,9.888,10.999,11,10.999h2v-2.5c0-0.001,0-0.001,0-0.001C13.002,7.118,14.12,6,15.5,6 C16.881,6,18,7.119,18,8.5C18,8.5,18,8.92,18,8.999z"
     id="path1"
     style="fill:#ffffff" />
</svg>
