<?xml version="1.0" encoding="UTF-8" standalone="no"?>
<svg
   viewBox="0 0 24 24"
   width="24px"
   height="24px"
   version="1.1"
   id="svg1"
   sodipodi:docname="vkontakte.svg"
   inkscape:version="1.3.2 (091e20e, 2023-11-25, custom)"
   xmlns:inkscape="http://www.inkscape.org/namespaces/inkscape"
   xmlns:sodipodi="http://sodipodi.sourceforge.net/DTD/sodipodi-0.dtd"
   xmlns="http://www.w3.org/2000/svg"
   xmlns:svg="http://www.w3.org/2000/svg">
  <defs
     id="defs1" />
  <sodipodi:namedview
     id="namedview1"
     pagecolor="#ffffff"
     bordercolor="#000000"
     borderopacity="0.25"
     inkscape:showpageshadow="2"
     inkscape:pageopacity="0.0"
     inkscape:pagecheckerboard="0"
     inkscape:deskcolor="#d1d1d1"
     inkscape:zoom="35.625"
     inkscape:cx="12"
     inkscape:cy="12"
     inkscape:window-width="1920"
     inkscape:window-height="1111"
     inkscape:window-x="-9"
     inkscape:window-y="-9"
     inkscape:window-maximized="1"
     inkscape:current-layer="svg1" />
  <path
     d="M 4 2 C 2.898438 2 2 2.898438 2 4 L 2 20 C 2 21.101563 2.898438 22 4 22 L 20 22 C 21.101563 22 22 21.101563 22 20 L 22 4 C 22 2.898438 21.101563 2 20 2 Z M 8 6 L 11.875 6 C 13.074219 6 16 6.046875 16 8.53125 C 16 10.011719 14.992188 10.652344 14.53125 10.84375 L 14.53125 10.90625 C 15.71875 10.90625 17 12.15625 17 13.53125 C 17 15.011719 16.382813 17 12.40625 17 L 8 17 Z M 11 8 L 11 10 C 11 10 11.910156 10 12.0625 10 C 12.921875 10 13 9.242188 13 9.0625 C 13 8.949219 12.984375 8 12.03125 8 Z M 11 12 L 11 15 C 11 15 12.25 14.96875 12.5 14.96875 C 13.796875 14.96875 14 13.871094 14 13.46875 C 14 12.859375 13.65625 12 12.53125 12 C 12.261719 12 11 12 11 12 Z"
     id="path1"
     style="fill:#ffffff" />
</svg>
