<?xml version="1.0" encoding="UTF-8" standalone="no"?>
<svg
   viewBox="0 0 24 24"
   width="24px"
   height="24px"
   version="1.1"
   id="svg1"
   sodipodi:docname="xing.svg"
   inkscape:version="1.3.2 (091e20e, 2023-11-25, custom)"
   xmlns:inkscape="http://www.inkscape.org/namespaces/inkscape"
   xmlns:sodipodi="http://sodipodi.sourceforge.net/DTD/sodipodi-0.dtd"
   xmlns="http://www.w3.org/2000/svg"
   xmlns:svg="http://www.w3.org/2000/svg">
  <defs
     id="defs1" />
  <sodipodi:namedview
     id="namedview1"
     pagecolor="#ffffff"
     bordercolor="#000000"
     borderopacity="0.25"
     inkscape:showpageshadow="2"
     inkscape:pageopacity="0.0"
     inkscape:pagecheckerboard="0"
     inkscape:deskcolor="#d1d1d1"
     inkscape:zoom="35.625"
     inkscape:cx="12"
     inkscape:cy="12"
     inkscape:window-width="1920"
     inkscape:window-height="1111"
     inkscape:window-x="-9"
     inkscape:window-y="-9"
     inkscape:window-maximized="1"
     inkscape:current-layer="svg1" />
  <path
     d="M 20 2 L 4 2 C 2.898438 2 2 2.898438 2 4 L 2 20 C 2 21.101563 2.898438 22 4 22 L 20 22 C 21.101563 22 22 21.101563 22 20 L 22 4 C 22 2.898438 21.101563 2 20 2 Z M 8.398438 15.101563 L 6.199219 15.101563 C 6 15.101563 5.898438 14.898438 6 14.699219 L 8.300781 10.5 C 8.300781 10.398438 8.300781 10.300781 8.300781 10.300781 L 6.800781 7.699219 C 6.699219 7.5 6.800781 7.300781 7 7.300781 L 9.199219 7.300781 C 9.300781 7.300781 9.398438 7.300781 9.398438 7.398438 L 11.101563 10.300781 C 11.101563 10.398438 11.101563 10.5 11.101563 10.5 L 8.601563 15 C 8.601563 15.101563 8.5 15.101563 8.398438 15.101563 Z M 18 5.398438 L 13.601563 13.5 C 13.601563 13.601563 13.601563 13.699219 13.601563 13.699219 L 16.5 18.699219 C 16.601563 18.898438 16.5 19.101563 16.300781 19.101563 L 14 19.101563 C 13.898438 19.101563 13.800781 19.101563 13.800781 19 L 10.800781 13.800781 C 10.800781 13.699219 10.800781 13.601563 10.800781 13.601563 L 15.398438 5.300781 C 15.398438 5 15.5 5 15.601563 5 L 17.800781 5 C 17.898438 5 18.101563 5.199219 18 5.398438 Z"
     id="path1"
     style="fill:#ffffff" />
</svg>
