<?xml version="1.0" encoding="UTF-8" standalone="no"?>
<svg
   viewBox="0 0 24 24"
   width="24"
   height="24"
   version="1.1"
   id="svg1"
   sodipodi:docname="whatsapp.svg"
   inkscape:version="1.3.2 (091e20e, 2023-11-25, custom)"
   xmlns:inkscape="http://www.inkscape.org/namespaces/inkscape"
   xmlns:sodipodi="http://sodipodi.sourceforge.net/DTD/sodipodi-0.dtd"
   xmlns="http://www.w3.org/2000/svg"
   xmlns:svg="http://www.w3.org/2000/svg">
  <defs
     id="defs1" />
  <sodipodi:namedview
     id="namedview1"
     pagecolor="#ffffff"
     bordercolor="#000000"
     borderopacity="0.25"
     inkscape:showpageshadow="2"
     inkscape:pageopacity="0.0"
     inkscape:pagecheckerboard="0"
     inkscape:deskcolor="#d1d1d1"
     inkscape:zoom="35.625"
     inkscape:cx="12"
     inkscape:cy="12"
     inkscape:window-width="1920"
     inkscape:window-height="1111"
     inkscape:window-x="-9"
     inkscape:window-y="-9"
     inkscape:window-maximized="1"
     inkscape:current-layer="svg1" />
  <path
     d="m 12.011719,2 c -5.5060003,0 -9.9882346,4.478375 -9.9902346,9.984375 -10e-4,1.76 0.4599843,3.478188 1.3339844,4.992187 L 2,22 7.2324219,20.763672 c 1.459,0.796 3.1014371,1.213844 4.7734371,1.214844 h 0.0039 c 5.505,0 9.985281,-4.479375 9.988281,-9.984375 C 22.00004,9.3251406 20.962165,6.8157344 19.076165,4.9277344 17.190172,3.0407344 14.683719,2.001 12.011719,2 Z m -0.002,2 c 2.136,0.001 4.143343,0.8337969 5.652343,2.3417969 1.509,1.51 2.337938,3.5163906 2.335938,5.6503911 -0.002,4.403999 -3.584235,7.986328 -7.990235,7.986328 -1.333,-10e-4 -2.6534058,-0.335704 -3.8164058,-0.970704 l -0.6738281,-0.367187 -0.7441406,0.175781 -1.96875,0.464844 0.4804687,-1.785156 0.2167969,-0.800782 -0.4140625,-0.71875 c -0.698,-1.208 -1.0674062,-2.589187 -1.0664062,-3.992187 C 4.0234844,7.582375 7.6067656,4 12.009766,4 Z M 8.4765625,7.375 c -0.167,0 -0.4370156,0.0625 -0.6660156,0.3125 -0.229,0.249 -0.875,0.8520781 -0.875,2.0800781 0,1.2279999 0.8945312,2.4150309 1.0195312,2.5820309 0.124,0.166 1.7266719,2.765625 4.2636719,3.765625 2.108,0.831 2.536141,0.667 2.994141,0.625 0.458,-0.041 1.477547,-0.602547 1.685547,-1.185546 0.207999,-0.583001 0.208484,-1.084501 0.146484,-1.1875 -0.062,-0.104 -0.228516,-0.166016 -0.478516,-0.291016 -0.249,-0.125 -1.476078,-0.727547 -1.705078,-0.810547 -0.229,-0.083 -0.3965,-0.125 -0.5625,0.125 -0.166,0.25 -0.643062,0.810562 -0.789062,0.976563 -0.146,0.167 -0.291016,0.189453 -0.541016,0.06445 -0.25,-0.126 -1.053812,-0.390235 -2.007812,-1.240235 -0.742001,-0.661 -1.2426724,-1.476562 -1.3886724,-1.726562 -0.145,-0.249 -0.013672,-0.385766 0.1113282,-0.509766 0.112,-0.112 0.2480468,-0.2915 0.3730472,-0.4375 0.124,-0.146 0.167,-0.250016 0.25,-0.416016 0.083,-0.1659995 0.04051,-0.3124995 -0.02149,-0.4374995 C 10.223156,9.5390625 9.737625,8.3065 9.515625,7.8125 9.328625,7.3975 9.131125,7.3878594 8.953125,7.3808594 8.808125,7.3748594 8.6425625,7.375 8.4765625,7.375 Z"
     id="path1"
     style="fill:#008000" />
</svg>
